<?xml version="1.0" encoding="utf-8"?>
<!-- Generator: Adobe Illustrator 22.1.0, SVG Export Plug-In . SVG Version: 6.00 Build 0)  -->
<svg version="1.1" id="Layer_1" xmlns="http://www.w3.org/2000/svg" xmlns:xlink="http://www.w3.org/1999/xlink" x="0px" y="0px"
	 viewBox="0 0 97.5 13.6" style="enable-background:new 0 0 97.5 13.6;" xml:space="preserve">
<style type="text/css">
	.st0{fill:#FFFFFF;}
	.st1{fill:#EEA320;}
</style>
<g>
	<polygon class="st1" points="64.7,11.9 65.8,6.8 74.4,6.8 73.2,11.9 	"/>
	<polygon class="st1" points="77.5,11.9 78.7,6.8 97.4,6.8 96.3,11.9 	"/>
	<polygon class="st0" points="4.6,2.4 4.3,2.6 3.6,4.4 3.8,4.7 5.7,4.7 6,4.4 6.2,3.7 5.3,3.7 5.2,4 4.7,4 5.1,3 5.5,3 5.5,3.3 
		6.4,3.3 6.7,2.6 6.5,2.4 	"/>
	<path class="st0" d="M7.7,3h0.5L8,3.5H7.6L7.7,3z M7.3,2.4L6.9,2.6L6.2,4.7h1L7.4,4h0.5L7.6,4.7h1l0.7-2.1L9.2,2.4H7.3z"/>
	<polygon class="st0" points="9.7,2.4 8.9,4.7 11,4.7 11.3,4 10.1,4 10.7,2.4 	"/>
	<polygon class="st0" points="12.1,2.4 11.3,4.7 13.4,4.7 13.7,4 12.5,4 13.1,2.4 	"/>
	<polygon class="st0" points="16.1,2.1 15.1,4.9 15.8,4.9 16.8,2.1 	"/>
	<path class="st0" d="M20,4.7l-0.2-0.2l-0.3,0.2h-1.2l-0.2-0.2l0.7-2.1h1L19.2,4h0.1l0.5-0.4l0.4-1.2h1L20.7,4h0.1l0.5-0.4l0.4-1.2
		h1l-0.5,1.4c0,0,0,0,0,0.1l-1.2,0.9H20z"/>
	<polygon class="st0" points="23.6,4.7 23.9,3.7 23.4,3.7 23.1,4.7 22.1,4.7 23,2.4 23.9,2.4 23.6,3.3 24.1,3.3 24.4,2.4 25.3,2.4 
		24.5,4.7 	"/>
	<path class="st0" d="M26.2,4.7L26.5,4H26l-0.2,0.7h-1l0.7-2.1l0.3-0.2h1.9l0.2,0.2l-0.7,2.1H26.2z M26.6,3.5L26.8,3h-0.5l-0.2,0.5
		H26.6z"/>
	<polygon class="st0" points="28.2,4.7 28.7,3 28,3 28.3,2.4 30.6,2.4 30.4,3 29.7,3 29.1,4.7 	"/>
	<polygon class="st0" points="30.1,4.7 30.4,4 31.8,4 31.9,3.7 30.7,3.7 30.5,3.5 30.9,2.6 31.2,2.4 33.3,2.4 33.1,3 31.7,3 
		31.6,3.3 32.9,3.3 33,3.4 32.6,4.4 32.3,4.7 	"/>
	<path class="st0" d="M34.2,4.7L34.5,4H34l-0.2,0.7h-1l0.7-2.1l0.3-0.2h1.9l0.2,0.2l-0.7,2.1H34.2z M34.6,3.5L34.8,3h-0.5l-0.2,0.5
		H34.6z"/>
	<path class="st0" d="M35.5,4.7l0.8-2.3h2.1l0.2,0.2l-0.4,1.2L37.9,4h-1.2l-0.2,0.7H35.5z M37.5,3H37l-0.1,0.2h0.5L37.5,3z"/>
	<path class="st0" d="M38.1,4.7L39,2.4h2.1l0.2,0.2l-0.4,1.2L40.5,4h-1.2l-0.2,0.7H38.1z M40.1,3h-0.5l-0.1,0.2h0.5L40.1,3z"/>
	<path class="st1" d="M5.9,8.8H4.8L5,8.3H6L5.9,8.8z M5.5,10.4H4.4l0.1-0.5h1.1L5.5,10.4z M8,8.8l0.4-1.5L8,6.8H3.8L3.1,7.3L2.7,8.8
		l0.4,0.5L2.4,9.9L2,11.4l0.4,0.5h4.3l0.7-0.5l0.4-1.5L7.3,9.4L8,8.8z"/>
	<path class="st1" d="M11.4,10.4h-1.1l0.6-2.1H12L11.4,10.4z M12.6,11.9l0.7-0.5l1.1-4.1L14,6.8H9.7L9,7.3l-1.1,4.1l0.4,0.5H12.6z"
		/>
	<path class="st1" d="M17.4,10.4h-1.1l0.6-2.1h1.1L17.4,10.4z M18.6,11.9l0.7-0.5l1.1-4.1l-0.4-0.5h-4.3L15,7.3l-1.1,4.1l0.4,0.5
		H18.6z"/>
	<polygon class="st1" points="29.9,6.8 29.5,8.3 31.8,8.3 30.4,10.2 29.9,11.9 32.1,11.9 32.4,10.8 34.3,8.3 34.6,7.3 34.2,6.8 	"/>
	<path class="st1" d="M38,8.8h-1.1L37,8.3h1.1L38,8.8z M37.6,10.4h-1.1l0.1-0.5h1.1L37.6,10.4z M40.1,8.8l0.4-1.5l-0.4-0.5h-4.3
		l-0.7,0.5l-0.4,1.5l0.4,0.5l-0.7,0.5l-0.4,1.5l0.4,0.5h4.3l0.7-0.5l0.4-1.5l-0.4-0.5L40.1,8.8z"/>
	<polygon class="st1" points="42.6,9.9 45.2,9.9 45.9,9.4 46.5,7.3 46.1,6.8 41.3,6.8 40.9,8.3 44.1,8.3 43.9,8.8 41.3,8.8 
		40.6,9.4 40,11.4 40.4,11.9 45.2,11.9 45.6,10.4 42.4,10.4 	"/>
	<polygon class="st1" points="47.1,6.8 46.7,8.3 49,8.3 47.5,10.2 47.1,11.9 49.2,11.9 49.5,10.8 51.4,8.3 51.7,7.3 51.3,6.8 	"/>
	<path class="st1" d="M55.1,8.8H54l0.1-0.5h1.1L55.1,8.8z M54.7,10.4h-1.1l0.1-0.5h1.1L54.7,10.4z M57.2,8.8l0.4-1.5l-0.4-0.5H53
		l-0.7,0.5l-0.4,1.5l0.4,0.5l-0.7,0.5l-0.4,1.5l0.4,0.5h4.3l0.7-0.5L57,9.9l-0.4-0.5L57.2,8.8z"/>
	<polygon class="st1" points="22.2,10.1 26.5,10.1 26.9,8.6 22.6,8.6 	"/>
</g>
</svg>
