<?xml version="1.0" encoding="utf-8"?>
<!-- Generator: Adobe Illustrator 22.1.0, SVG Export Plug-In . SVG Version: 6.00 Build 0)  -->
<svg version="1.1" id="Layer_1" xmlns="http://www.w3.org/2000/svg" xmlns:xlink="http://www.w3.org/1999/xlink" x="0px" y="0px"
	 viewBox="0 0 44 48" style="enable-background:new 0 0 44 48;" xml:space="preserve">
<style type="text/css">
	.st0{fill:#FFFFFF;}
	.st1{fill:#EEA320;}
</style>
<path class="st0" d="M43.1,24.3c0,11.6-9.4,20.9-21.1,20.9c-11.3,0-20.7-9.5-20.7-20.8c0-11.6,9.4-21,21-20.9
	C33.8,3.4,43.1,12.8,43.1,24.3z M22.2,42.3c10,0,18-8,18.1-18c0-9.9-8.1-18-18-18c-9.9,0-18,8-18.1,17.9
	C4.2,34.2,12.3,42.2,22.2,42.3z"/>
<path class="st0" d="M18,35.8c-0.7-0.7-1.3-1.3-2-2c3.1-3.2,6.3-6.3,9.5-9.5c-3.2-3.2-6.4-6.4-9.6-9.6c0.7-0.7,1.4-1.4,2-2
	c3.8,3.8,7.7,7.7,11.5,11.5C25.7,28.1,21.8,32,18,35.8z"/>
<path d="M43.3,22.7c0,0.9,0,1.8,0,2.7c0,0.3-0.1,0.5-0.1,0.8c-0.5,4.2-2,8-4.7,11.3c-3.4,4.1-7.6,6.6-12.8,7.6
	c-0.8,0.1-1.6,0.2-2.4,0.3c-0.9,0-1.8,0-2.7,0c-0.4-0.1-0.8-0.1-1.2-0.2c-4.5-0.5-8.5-2.3-11.8-5.4C2.3,34.8,0,28.7,0.8,21.5
	c0.6-5.7,3.2-10.3,7.6-14c6.9-5.7,16.4-6.5,24.1-2c5.7,3.3,9.2,8.3,10.4,14.9C43.2,21.1,43.2,21.9,43.3,22.7z M18.4,31.6
	c3.4-3.4,6.7-6.7,10-10c-1.3-1.3-2.7-2.7-4-4c-3.3,3.3-6.7,6.7-10,10C15.7,29,17.1,30.3,18.4,31.6z M12.7,29.3
	c-0.4,0.3-0.7,0.6-1.1,1c-0.2,0.2-0.3,0.4-0.3,0.6c-0.3,1.2-0.5,2.4-0.8,3.5c-0.2,0.8,0.3,1.3,1.1,1.1c1-0.2,2-0.5,3.1-0.7
	c1-0.1,1.5-0.9,2.1-1.5C15.4,32,14.1,30.6,12.7,29.3z M30.1,20c0.7-0.7,1.3-1.3,2-2c0.3-0.3,0.3-0.6,0-0.9C31,16.1,30,15,28.9,13.9
	c-0.2-0.2-0.6-0.3-0.8-0.1c-0.7,0.7-1.4,1.4-2,2.1C27.4,17.3,28.8,18.6,30.1,20z"/>
</svg>
