<svg width="24" height="24" viewBox="0 0 24 24" fill="none" xmlns="http://www.w3.org/2000/svg">
<path d="M11.8268 14.2719L14.3268 13.2719C15.3057 12.2929 15.0568 13.544 15.3268 12.1862C15.5968 10.8283 15.8566 11.551 15.3268 10.2719C14.797 8.9929 14.9781 8.71266 13.8269 7.94353C12.6758 7.17439 13.2112 7.32785 11.8268 7.32785C10.4424 7.32785 10.4779 7.5028 9.3268 8.27194C8.17567 9.04108 9.02968 8.22091 8.49985 9.49995C7.97001 10.779 8.05676 10.4141 8.3268 11.7719C8.59684 13.1298 7.8479 11.793 8.8268 12.772L11.8268 14.2719ZM11.8269 23.5L5.46292 17.136C4.20426 15.8773 3.34711 14.2736 2.99985 12.5278C2.65259 10.782 2.83083 8.97238 3.51202 7.32785C4.19321 5.68333 5.34676 4.27773 6.8268 3.2888C8.30684 2.29987 10.0469 1.77203 11.8269 1.77203C13.6069 1.77203 15.347 2.29987 16.827 3.2888C18.3071 4.27773 19.4606 5.68333 20.1418 7.32785C20.823 8.97238 21.0013 10.782 20.654 12.5278C20.3067 14.2736 19.4496 15.8773 18.1909 17.136L11.8269 23.5ZM11.8269 12.772C12.3574 12.772 12.8661 12.5612 13.2411 12.1862C13.6162 11.8111 13.8269 11.3024 13.8269 10.772C13.8269 10.2415 13.6162 9.73281 13.2411 9.35774C12.8661 8.98267 12.3574 8.77195 11.8269 8.77195C11.2965 8.77195 10.7878 8.98267 10.4127 9.35774C10.0376 9.73281 9.82692 10.2415 9.82692 10.772C9.82692 11.3024 10.0376 11.8111 10.4127 12.1862C10.7878 12.5612 11.2965 12.772 11.8269 12.772ZM11.8269 14.772C10.7661 14.772 9.74864 14.3505 8.9985 13.6004C8.24835 12.8502 7.82692 11.8328 7.82692 10.772C7.82692 9.71109 8.24835 8.69367 8.9985 7.94353C9.74864 7.19338 10.7661 6.77195 11.8269 6.77195C12.8878 6.77195 13.9052 7.19338 14.6553 7.94353C15.4055 8.69367 15.8269 9.71109 15.8269 10.772C15.8269 11.8328 15.4055 12.8502 14.6553 13.6004C13.9052 14.3505 12.8878 14.772 11.8269 14.772Z" fill="#003C57"/>
</svg>
