<svg width="25" height="25" viewBox="0 0 25 25" fill="none" xmlns="http://www.w3.org/2000/svg">
<path fill-rule="evenodd" clip-rule="evenodd" d="M3.1 5C2.49273 5 2 5.44793 2 6C2 6.55207 2.49273 7 3.1 7H22.9C23.5073 7 24 6.55207 24 6C24 5.44793 23.5073 5 22.9 5H3.1ZM8.8 11C8.35835 11 8 11.4479 8 12C8 12.5521 8.35835 13 8.8 13H23.2C23.6417 13 24 12.5521 24 12C24 11.4479 23.6417 11 23.2 11H8.8ZM14.5 17C14.224 17 14 17.4479 14 18C14 18.5521 14.224 19 14.5 19H23.5C23.776 19 24 18.5521 24 18C24 17.4479 23.776 17 23.5 17H14.5Z" fill="white"/>
</svg>
