<?xml version="1.0" encoding="UTF-8"?>
<!DOCTYPE svg PUBLIC "-//W3C//DTD SVG 1.1//EN" "http://www.w3.org/Graphics/SVG/1.1/DTD/svg11.dtd">
<!-- Creator: CorelDRAW 2020 (64-Bit) -->
<svg xmlns="http://www.w3.org/2000/svg" xml:space="preserve" width="70.8078mm" height="81.0975mm" version="1.1" style="shape-rendering:geometricPrecision; text-rendering:geometricPrecision; image-rendering:optimizeQuality; fill-rule:evenodd; clip-rule:evenodd"
viewBox="0 0 1346.57 1542.25"
 xmlns:xlink="http://www.w3.org/1999/xlink"
 xmlns:xodm="http://www.corel.com/coreldraw/odm/2003">
 <defs>
  <style type="text/css">
   <![CDATA[
    .fil1 {fill:#003C57}
    .fil0 {fill:#EFA41F}
   ]]>
  </style>
 </defs>
 <g id="Layer_x0020_1">
  <metadata id="CorelCorpID_0Corel-Layer"/>
  <g id="_1931062222352">
   <path class="fil0" d="M642.06 1185.97l62.45 0 0.02 -0.66c0.45,-19.7 8,-39.04 11.96,-58.2 3.49,-16.92 9.93,-33.64 11.97,-50.78l0.83 -7.02 6.69 2.3c11.84,4.06 28.4,14.28 38.24,22.06 12.64,9.99 24.83,19.35 34.86,32.16 48.44,61.86 52.09,155.4 1.66,217.23 -8.84,10.84 -19.21,20.36 -30.83,28.16l-0.34 0.23 14.95 131.61 -50.22 0 -0.2 -5.5c-0.92,-25.99 -5.24,-51.97 -8.49,-77.75 -2.95,-23.47 -6.18,-47.2 -6.6,-70.88l-0.07 -3.93 3.64 -1.47c15.42,-6.2 31.46,-23.27 41.28,-36.37 18.61,-24.83 25.06,-57.22 21.59,-87.69 -2.73,-23.98 -12.96,-53.54 -33.13,-68.32l-1.04 -0.76 -0.03 1.29c-0.3,13.32 -4.74,28.58 -8.15,41.49 -3.34,12.68 -7.55,25.64 -9.53,38.6l-0.74 4.84 -139.11 0 -0.74 -4.84c-1.99,-12.97 -6.19,-25.92 -9.53,-38.6 -3.4,-12.91 -7.85,-28.17 -8.15,-41.49l-0.03 -1.29 -1.04 0.76c-7.33,5.37 -19.67,23.66 -23.44,32.06 -10.77,23.97 -10.45,34.58 -10.45,60.19 0,35.05 29.66,87.57 63.47,100.15l3.81 1.42 -0.1 4.07c-0.32,12.71 -1.98,25.24 -3.08,37.88 -1.13,12.99 -2.22,25.99 -3.84,38.93 -2.98,23.83 -7.21,47.7 -8.13,71.72l-0.21 5.49 -50.21 0 14.96 -131.61 -0.34 -0.23c-47.88,-32.08 -66.95,-87.43 -66.95,-143.11 0,-34.34 15.96,-75.59 38.8,-101.19 14.64,-16.41 51.72,-47.7 72.01,-55.2l6.76 -2.5 0.88 7.15c2.15,17.31 7.91,35.3 12.29,52.19 4.49,17.28 11.19,39.07 11.59,56.76l0.02 0.66z"/>
   <path class="fil1" d="M1046.88 1491.64l0 -223.14 47.56 0 0 223.14 189.2 0 -115.27 -484.99 -166.23 -135.33 -106.25 0c-10.46,12.66 -20.94,25.29 -31.55,37.82 -9.68,11.44 -45.92,55.24 -57.92,60.95l-1.16 0.55 -263.95 0 -1.16 -0.55c-12,-5.71 -48.23,-49.52 -57.92,-60.95 -10.61,-12.53 -21.1,-25.16 -31.55,-37.82l-106.25 0 -166.23 135.33 -21.88 92.07 -50.65 -12.61 23.08 -99.65 193.06 -165.75 166.85 0c12.84,-9.99 23.28,-21.93 32.35,-35.47l0.25 -0.37 -0.25 -0.37c-5.67,-8.47 -13.66,-15.02 -20.78,-22.2 -19.63,-19.81 -37.7,-45.67 -53.19,-68.89 -55.25,-82.84 -86.13,-170.79 -96.69,-269.71 -0.95,-8.85 -2.58,-15.43 -7.59,-22.9 -6.09,-9.09 -8.91,-14.52 -11.4,-25.32 -5.97,-25.85 -5.86,-56.22 -5.86,-82.74 0,-2.81 0.02,-5.63 0.06,-8.36l0 -157.84 126.51 -126.51 442.49 0 126.51 126.51 0 162.2 0.02 3.98c0.01,3.37 -0.02,6.73 -0.02,10.1l0 0.05c0,23.45 -0.57,49.78 -5.85,72.62 -2.5,10.8 -5.31,16.23 -11.4,25.32 -5.01,7.47 -6.64,14.05 -7.59,22.9 -10.56,98.91 -41.44,186.87 -96.69,269.71 -15.49,23.22 -33.56,49.08 -53.19,68.89 -7.12,7.18 -15.1,13.73 -20.78,22.2l-0.25 0.37 0.25 0.37c9.07,13.54 19.5,25.48 32.35,35.47l166.85 0 193.06 165.75 0.42 1.82c42.23,182.33 84.48,364.66 126.71,546.99l1.62 6.99 -399.67 0 0 -50.62 99.99 0zm-983.96 0l189.2 0 0 -223.14 47.56 0 0 223.14 574.09 0 0 50.62 -200.49 0c-222.04,0 -444.07,0 -666.11,0l-7.18 0 89.16 -384.91 50.25 12.51 -76.48 321.78zm907.52 -1344.15l-96.87 -96.87 -400.55 0 -96.87 96.87 0 133.73 0.67 -0.06c18.88,-1.56 42.99,-12.54 61.62,-18.01 44.62,-13.1 89.56,-22.52 135.9,-26.83 32.88,-3.06 65.92,-4 98.92,-4 33,0 66.05,0.95 98.92,4 46.34,4.31 91.28,13.72 135.9,26.83 18.63,5.47 42.74,16.44 61.62,18.01l0.72 0.06 0 -133.73zm-594.34 187.49l0 0.53c0,27.87 7.11,55.69 40.41,55.69 37.96,0 73.9,-18.35 110.14,-27.6 29.44,-7.51 59.05,-14.15 89.4,-16.62 19.02,-1.55 38.14,-1.71 57.22,-1.71 19.08,0 38.2,0.17 57.22,1.71 30.35,2.47 59.96,9.11 89.4,16.62 36.24,9.25 72.18,27.6 110.14,27.6 33.3,0 40.41,-27.83 40.41,-55.69l0 -0.53 -0.52 -0.12c-9.43,-2.2 -18.42,-5.55 -27.39,-9.16 -36.07,-14.52 -78,-22.88 -116.25,-29.68 -38.77,-6.89 -79.98,-13.14 -119.4,-13.14 -11.18,0 -22.37,0.05 -33.7,0.2 -11.18,-0.15 -22.36,-0.2 -33.55,-0.2 -39.42,0 -80.63,6.25 -119.4,13.14 -38.25,6.8 -80.17,15.15 -116.25,29.68 -8.96,3.61 -17.96,6.95 -27.39,9.16l-0.52 0.12zm27.51 103.62l0 0.84c0,63.07 50.89,176.96 85.66,229.67 40.96,62.09 103.85,127.98 184.01,127.98 80.16,0 143.05,-65.89 184.01,-127.98 34.77,-52.71 85.66,-166.6 85.66,-229.67l0 -0.84 -0.83 0.19c-30.82,7.18 -97.88,-13.35 -129.59,-21.85 -33.52,-8.99 -74,-20.96 -108.69,-20.96 -10.19,0 -20.38,-0.22 -30.57,-0.22 -10.19,0 -20.38,0.22 -30.57,0.22 -34.69,0 -75.16,11.97 -108.69,20.96 -31.71,8.5 -98.76,29.04 -129.59,21.85l-0.83 -0.19zm156.14 375.84l-0.22 0.82c-2.56,9.6 -13.4,21.01 -20.41,28.02 -7.63,7.63 -19.17,15.33 -25.33,23.73l-0.28 0.37 0.26 0.39c6.52,9.75 16.19,20.55 24.21,29.1 4.07,4.34 22.44,23.16 28.32,23.16l213.97 0c5.88,0 24.24,-18.82 28.32,-23.16 8.02,-8.55 17.68,-19.35 24.21,-29.1l0.26 -0.39 -0.28 -0.37c-6.16,-8.4 -17.7,-16.1 -25.33,-23.73 -7.01,-7.01 -17.85,-18.42 -20.41,-28.02l-0.22 -0.82 -0.74 0.39c-34.61,18.31 -73.12,33.06 -112.84,33.44 -39.62,-0.38 -78.12,-15.13 -112.73,-33.44l-0.74 -0.39z"/>
   <path class="fil0" d="M598.32 180.2l-35.03 -35.04 4.34 -4.03c24.94,-23.14 72.32,-35.33 105.65,-35.33 33.33,0 80.71,12.19 105.65,35.32l4.34 4.03 -35.04 35.04 -4.03 -4.43c-2.09,-2.3 -7.55,-4.91 -10.31,-6.25 -18.47,-8.99 -40.18,-12.88 -60.62,-12.88 -20.44,0 -42.16,3.89 -60.63,12.88 -2.76,1.34 -8.21,3.95 -10.31,6.25l-4.03 4.42z"/>
  </g>
 </g>
</svg>
